# xmcd
#
# Track frame offsets: 
#        150
#        18303
#        38706
#        53706
#        66756
#        77706
#        97057
#        114607
#        150307
#        196658
#        218708
#        232511
#
# Disc length: 3263 seconds
#
# Revision: 0
# Processed by: cddbd v1.5.2PL0 Copyright (c) Steve Scherf et al.
# Submitted via: ExactAudioCopy v1.0b3
#
DISCID=890cbd0c
DTITLE=Black Magic Johnson - Call Me
DYEAR=2012
DGENRE=Blues
TTITLE0=Crazy About You Baby
TTITLE1=Loving Ways
TTITLE2=Standing By Me
TTITLE3=You Tell Me
TTITLE4=Hey Baby
TTITLE5=Water from a Rock
TTITLE6=Call Me
TTITLE7=She's Got Everything
TTITLE8=Love So Cold
TTITLE9=Blues Traveler
TTITLE10=All Tore Up
TTITLE11=Thanks You Baby
EXTD=
EXTT0=
EXTT1=
EXTT2=
EXTT3=
EXTT4=
EXTT5=
EXTT6=
EXTT7=
EXTT8=
EXTT9=
EXTT10=
EXTT11=
PLAYORDER=
